<svg width="16" height="16" viewBox="0 0 16 16" fill="none" xmlns="http://www.w3.org/2000/svg">
<rect width="16" height="16" fill="#222831"/>
<path d="M2.3125 8.06562C2.3125 8.98437 2.48385 9.78281 2.82656 10.4609C3.16927 11.1391 3.63229 11.726 4.21562 12.2219L4.87187 12.6812V10.625C4.87187 10.4354 4.93385 10.2786 5.05781 10.1547C5.18177 10.0307 5.33854 9.96875 5.52812 9.96875C5.71771 9.96875 5.87448 10.0307 5.99844 10.1547C6.1224 10.2786 6.18437 10.4354 6.18437 10.625V14.3437C6.18437 14.5333 6.1224 14.6901 5.99844 14.8141C5.87448 14.938 5.71771 15 5.52812 15H1.80937C1.61979 15 1.46302 14.938 1.33906 14.8141C1.2151 14.6901 1.15312 14.5333 1.15312 14.3437C1.15312 14.1542 1.2151 13.9974 1.33906 13.8734C1.46302 13.7495 1.61979 13.6875 1.80937 13.6875H3.99687L3.66875 13.425C2.73542 12.6812 2.05729 11.8719 1.63437 10.9969C1.21146 10.1219 1 9.14479 1 8.06562C1 6.69479 1.36094 5.44427 2.08281 4.31406C2.80469 3.18385 3.77083 2.32708 4.98125 1.74375C5.14167 1.67083 5.29479 1.67083 5.44062 1.74375C5.58646 1.81667 5.68854 1.93333 5.74687 2.09375C5.81979 2.25417 5.81979 2.41823 5.74687 2.58594C5.67396 2.75365 5.55729 2.88125 5.39687 2.96875C4.46354 3.46458 3.71615 4.16823 3.15469 5.07969C2.59323 5.99115 2.3125 6.98646 2.3125 8.06562ZM13.6875 7.93437C13.6875 7.23437 13.5161 6.52344 13.1734 5.80156C12.8307 5.07969 12.3823 4.44167 11.8281 3.8875L11.1937 3.31875V5.375C11.1937 5.56458 11.1318 5.72135 11.0078 5.84531C10.8839 5.96927 10.7271 6.03125 10.5375 6.03125C10.3479 6.03125 10.1911 5.96927 10.0672 5.84531C9.94323 5.72135 9.88125 5.56458 9.88125 5.375V1.65625C9.88125 1.46667 9.94323 1.3099 10.0672 1.18594C10.1911 1.06198 10.3479 1 10.5375 1H14.2562C14.4458 1 14.6026 1.06198 14.7266 1.18594C14.8505 1.3099 14.9125 1.46667 14.9125 1.65625C14.9125 1.84583 14.8505 2.0026 14.7266 2.12656C14.6026 2.25052 14.4458 2.3125 14.2562 2.3125H12.0469L12.375 2.61875C13.25 3.43542 13.9062 4.31042 14.3437 5.24375C14.7812 6.17708 15 7.07396 15 7.93437C15 9.29062 14.65 10.5266 13.95 11.6422C13.25 12.7578 12.3094 13.6219 11.1281 14.2344C10.9677 14.3219 10.8036 14.3328 10.6359 14.2672C10.4682 14.2016 10.3479 14.0812 10.275 13.9062C10.2021 13.7458 10.2021 13.5818 10.275 13.4141C10.3479 13.2464 10.4646 13.1187 10.625 13.0312C11.5729 12.55 12.3203 11.85 12.8672 10.9312C13.4141 10.0125 13.6875 9.01354 13.6875 7.93437Z" fill="#32E0C4"/>
</svg>
