<svg width="16" height="16" viewBox="0 0 16 16" fill="none" xmlns="http://www.w3.org/2000/svg">
<rect width="16" height="16" rx="2" fill="#222831"/>
<path d="M3.125 8.05625C3.125 8.84375 3.27188 9.52813 3.56563 10.1094C3.85938 10.6906 4.25625 11.1938 4.75625 11.6188L5.31875 12.0125V10.25C5.31875 10.0875 5.37188 9.95313 5.47813 9.84688C5.58438 9.74063 5.71875 9.6875 5.88125 9.6875C6.04375 9.6875 6.17813 9.74063 6.28438 9.84688C6.39063 9.95313 6.44375 10.0875 6.44375 10.25V13.4375C6.44375 13.6 6.39063 13.7344 6.28438 13.8406C6.17813 13.9469 6.04375 14 5.88125 14H2.69375C2.53125 14 2.39688 13.9469 2.29063 13.8406C2.18438 13.7344 2.13125 13.6 2.13125 13.4375C2.13125 13.275 2.18438 13.1406 2.29063 13.0344C2.39688 12.9281 2.53125 12.875 2.69375 12.875H4.56875L4.2875 12.65C3.4875 12.0125 2.90625 11.3188 2.54375 10.5688C2.18125 9.81875 2 8.98125 2 8.05625C2 6.88125 2.30938 5.80938 2.92813 4.84063C3.54688 3.87188 4.375 3.1375 5.4125 2.6375C5.55 2.575 5.68125 2.575 5.80625 2.6375C5.93125 2.7 6.01875 2.8 6.06875 2.9375C6.13125 3.075 6.13125 3.21563 6.06875 3.35938C6.00625 3.50313 5.90625 3.6125 5.76875 3.6875C4.96875 4.1125 4.32813 4.71563 3.84688 5.49688C3.36563 6.27813 3.125 7.13125 3.125 8.05625ZM12.875 7.94375C12.875 7.34375 12.7281 6.73438 12.4344 6.11563C12.1406 5.49688 11.7563 4.95 11.2813 4.475L10.7375 3.9875V5.75C10.7375 5.9125 10.6844 6.04688 10.5781 6.15313C10.4719 6.25938 10.3375 6.3125 10.175 6.3125C10.0125 6.3125 9.87813 6.25938 9.77188 6.15313C9.66563 6.04688 9.6125 5.9125 9.6125 5.75V2.5625C9.6125 2.4 9.66563 2.26563 9.77188 2.15938C9.87813 2.05313 10.0125 2 10.175 2H13.3625C13.525 2 13.6594 2.05313 13.7656 2.15938C13.8719 2.26563 13.925 2.4 13.925 2.5625C13.925 2.725 13.8719 2.85938 13.7656 2.96563C13.6594 3.07188 13.525 3.125 13.3625 3.125H11.4688L11.75 3.3875C12.5 4.0875 13.0625 4.8375 13.4375 5.6375C13.8125 6.4375 14 7.20625 14 7.94375C14 9.10625 13.7 10.1656 13.1 11.1219C12.5 12.0781 11.6938 12.8188 10.6813 13.3438C10.5438 13.4188 10.4031 13.4281 10.2594 13.3719C10.1156 13.3156 10.0125 13.2125 9.95 13.0625C9.8875 12.925 9.8875 12.7844 9.95 12.6406C10.0125 12.4969 10.1125 12.3875 10.25 12.3125C11.0625 11.9 11.7031 11.3 12.1719 10.5125C12.6406 9.725 12.875 8.86875 12.875 7.94375Z" fill="#32E0C4"/>
</svg>
